<?xml version="1.0" encoding="utf-8"?>
<!-- Generator: Adobe Illustrator 16.0.0, SVG Export Plug-In . SVG Version: 6.00 Build 0)  -->
<!DOCTYPE svg PUBLIC "-//W3C//DTD SVG 1.1//EN" "http://www.w3.org/Graphics/SVG/1.1/DTD/svg11.dtd">
<svg version="1.1" id="Layer_1" xmlns="http://www.w3.org/2000/svg" xmlns:xlink="http://www.w3.org/1999/xlink" x="0px" y="0px"
	 width="512px" height="512px" viewBox="0 0 512 512" enable-background="new 0 0 512 512" xml:space="preserve">
<path fill="#D1D105" d="M512,373V0H0v373h203.945l-13.953,52H166v30h180v-30h-23.992l-13.953-52H512z M482,30v227.395H30V30H482z
	 M30,343v-55.605h452V343H30z M290.945,425h-69.891l13.949-52h41.988L290.945,425z"/>
<path fill="#D1D105" d="M241,300.195h30v30h-30V300.195z"/>
<path fill="#D1D105" d="M147.668,159.926h64.664v60.332h30V69.594h-30v60.332h-64.664V69.594h-30v150.664h30V159.926z"/>
<path fill="#D1D105" d="M394.332,144.988c0-41.551-33.805-75.355-75.352-75.355h-49.316v150.711h49.316
	C360.531,220.344,394.332,186.539,394.332,144.988z M299.668,99.633h19.313c25.008,0,45.355,20.348,45.355,45.355
	s-20.348,45.352-45.355,45.352h-19.313V99.633z"/>
</svg>
