<?xml version="1.0" encoding="utf-8"?>
<!-- Generator: Adobe Illustrator 16.0.0, SVG Export Plug-In . SVG Version: 6.00 Build 0)  -->
<!DOCTYPE svg PUBLIC "-//W3C//DTD SVG 1.1//EN" "http://www.w3.org/Graphics/SVG/1.1/DTD/svg11.dtd">
<svg version="1.1" id="Layer_1" xmlns="http://www.w3.org/2000/svg" xmlns:xlink="http://www.w3.org/1999/xlink" x="0px" y="0px"
	 width="512px" height="512px" viewBox="0 0 512 512" enable-background="new 0 0 512 512" xml:space="preserve">
<path fill="#D1D105" d="M390.027,286c0,8.285-6.715,15-15,15c-8.281,0-15-6.715-15-15s6.719-15,15-15
	C383.313,271,390.027,277.715,390.027,286z"/>
<path fill="#D1D105" d="M150,15v166H15c-8.285,0-15,6.715-15,15v60c0,8.285,6.715,15,15,15h135v136c0,8.285,6.715,15,15,15h135v75
	c0,5.402,2.906,10.391,7.609,13.055c4.723,2.672,10.492,2.578,15.109-0.191l150-90C477.234,417.152,480,412.27,480,407V15
	c0-8.121-6.543-14.898-14.832-14.992C465.109,0.008,465.055,0,465,0H165C156.715,0,150,6.715,150,15z M30,241v-30h135
	c8.285,0,15-6.715,15-15v-1.973L227.957,226L180,257.973V256c0-8.285-6.715-15-15-15H30z M450,398.508l-120,72V113.492l120-72
	V398.508z M410.844,30L307.281,92.137C302.766,94.848,300,99.73,300,105v287H180v-97.973l83.32-55.547
	c4.172-2.781,6.68-7.465,6.68-12.48s-2.508-9.699-6.68-12.48L180,157.973V30H410.844z"/>
</svg>
