<?xml version="1.0" encoding="utf-8"?>
<!-- Generator: Adobe Illustrator 16.0.0, SVG Export Plug-In . SVG Version: 6.00 Build 0)  -->
<!DOCTYPE svg PUBLIC "-//W3C//DTD SVG 1.1//EN" "http://www.w3.org/Graphics/SVG/1.1/DTD/svg11.dtd">
<svg version="1.1" id="Capa_1" xmlns="http://www.w3.org/2000/svg" xmlns:xlink="http://www.w3.org/1999/xlink" x="0px" y="0px"
	 width="100px" height="100px" viewBox="0 0 100 100" enable-background="new 0 0 100 100" xml:space="preserve">
<g>
	<g id="c142_x">
		<path fill="#D1D105" d="M49.991,0C22.382,0,0,22.389,0,50.002C0,77.611,22.382,100,49.991,100C77.615,100,100,77.607,100,50.002
			C100,22.389,77.615,0,49.991,0z M71.489,63.54l-7.964,7.953c0,0-12.598-13.517-13.538-13.517
			c-0.926,0-13.527,13.517-13.527,13.517l-7.967-7.953c0,0,13.531-12.415,13.531-13.521c0-1.123-13.531-13.542-13.531-13.542
			l7.967-7.971c0,0,12.705,13.524,13.527,13.524c0.83,0,13.538-13.524,13.538-13.524l7.964,7.971c0,0-13.534,12.598-13.534,13.542
			C57.955,50.917,71.489,63.54,71.489,63.54z"/>
	</g>
	<g id="Capa_1_104_">
	</g>
</g>
</svg>
